<?xml version="1.0" encoding="UTF-8" standalone="no"?>
<!DOCTYPE svg PUBLIC "-//W3C//DTD SVG 1.1//EN"
 "http://www.w3.org/Graphics/SVG/1.1/DTD/svg11.dtd">
<!-- Generated by graphviz version 2.43.0 (0)
 -->
<!-- Title: g Pages: 1 -->
<svg width="1132pt" height="1052pt"
 viewBox="0.00 0.00 1131.50 1052.00" xmlns="http://www.w3.org/2000/svg" xmlns:xlink="http://www.w3.org/1999/xlink">
<g id="graph0" class="graph" transform="scale(1 1) rotate(0) translate(4 1048)">
<title>g</title>
<polygon fill="white" stroke="transparent" points="-4,4 -4,-1048 1127.5,-1048 1127.5,4 -4,4"/>
<!-- PB -->
<g id="node1" class="node">
<title>PB</title>
<text text-anchor="middle" x="80" y="-950.3" font-family="Times,serif" font-size="14.00">600&#45;700g pork belly</text>
</g>
<!-- C2 -->
<g id="node5" class="node">
<title>C2</title>
<text text-anchor="middle" x="207" y="-878.3" font-family="Times,serif" font-size="14.00">Rub</text>
</g>
<!-- PB&#45;&gt;C2 -->
<g id="edge3" class="edge">
<title>PB&#45;&gt;C2</title>
<path fill="none" stroke="black" d="M111.07,-935.88C129.12,-925.93 151.94,-913.35 170.8,-902.95"/>
<polygon fill="black" stroke="black" points="172.63,-905.94 179.7,-898.05 169.26,-899.81 172.63,-905.94"/>
</g>
<!-- V -->
<g id="node2" class="node">
<title>V</title>
<text text-anchor="middle" x="161" y="-1022.3" font-family="Times,serif" font-size="14.00">2 tbsp vodka</text>
</g>
<!-- C1 -->
<g id="node4" class="node">
<title>C1</title>
<text text-anchor="middle" x="218" y="-950.3" font-family="Times,serif" font-size="14.00">Combine</text>
</g>
<!-- V&#45;&gt;C1 -->
<g id="edge1" class="edge">
<title>V&#45;&gt;C1</title>
<path fill="none" stroke="black" d="M175.09,-1007.7C181.92,-999.3 190.26,-989.07 197.76,-979.86"/>
<polygon fill="black" stroke="black" points="200.47,-982.07 204.07,-972.1 195.04,-977.65 200.47,-982.07"/>
</g>
<!-- S1 -->
<g id="node3" class="node">
<title>S1</title>
<text text-anchor="middle" x="275" y="-1022.3" font-family="Times,serif" font-size="14.00">1 tsp salt</text>
</g>
<!-- S1&#45;&gt;C1 -->
<g id="edge2" class="edge">
<title>S1&#45;&gt;C1</title>
<path fill="none" stroke="black" d="M260.91,-1007.7C254.08,-999.3 245.74,-989.07 238.24,-979.86"/>
<polygon fill="black" stroke="black" points="240.96,-977.65 231.93,-972.1 235.53,-982.07 240.96,-977.65"/>
</g>
<!-- C1&#45;&gt;C2 -->
<g id="edge4" class="edge">
<title>C1&#45;&gt;C2</title>
<path fill="none" stroke="black" d="M215.28,-935.7C214.07,-927.98 212.61,-918.71 211.26,-910.11"/>
<polygon fill="black" stroke="black" points="214.7,-909.44 209.69,-900.1 207.78,-910.53 214.7,-909.44"/>
</g>
<!-- W -->
<g id="node6" class="node">
<title>W</title>
<text text-anchor="middle" x="207" y="-806.3" font-family="Times,serif" font-size="14.00">Wash and pat dry</text>
</g>
<!-- C2&#45;&gt;W -->
<g id="edge5" class="edge">
<title>C2&#45;&gt;W</title>
<path fill="none" stroke="black" d="M207,-863.7C207,-855.98 207,-846.71 207,-838.11"/>
<polygon fill="black" stroke="black" points="210.5,-838.1 207,-828.1 203.5,-838.1 210.5,-838.1"/>
</g>
<!-- SQ -->
<g id="node7" class="node">
<title>SQ</title>
<text text-anchor="middle" x="207" y="-734.3" font-family="Times,serif" font-size="14.00">Square up</text>
</g>
<!-- W&#45;&gt;SQ -->
<g id="edge6" class="edge">
<title>W&#45;&gt;SQ</title>
<path fill="none" stroke="black" d="M207,-791.7C207,-783.98 207,-774.71 207,-766.11"/>
<polygon fill="black" stroke="black" points="210.5,-766.1 207,-756.1 203.5,-766.1 210.5,-766.1"/>
</g>
<!-- SC -->
<g id="node8" class="node">
<title>SC</title>
<text text-anchor="middle" x="229" y="-662.3" font-family="Times,serif" font-size="14.00">Score meat side up to fat at 2&quot; intervals</text>
</g>
<!-- SQ&#45;&gt;SC -->
<g id="edge7" class="edge">
<title>SQ&#45;&gt;SC</title>
<path fill="none" stroke="black" d="M212.44,-719.7C214.89,-711.9 217.84,-702.51 220.57,-693.83"/>
<polygon fill="black" stroke="black" points="223.96,-694.69 223.62,-684.1 217.29,-692.59 223.96,-694.69"/>
</g>
<!-- C4 -->
<g id="node21" class="node">
<title>C4</title>
<text text-anchor="middle" x="410" y="-590.3" font-family="Times,serif" font-size="14.00">Coat</text>
</g>
<!-- SC&#45;&gt;C4 -->
<g id="edge20" class="edge">
<title>SC&#45;&gt;C4</title>
<path fill="none" stroke="black" d="M273.28,-647.88C304.02,-635.98 344.5,-620.33 373.42,-609.15"/>
<polygon fill="black" stroke="black" points="374.69,-612.41 382.75,-605.54 372.16,-605.88 374.69,-612.41"/>
</g>
<!-- S2 -->
<g id="node9" class="node">
<title>S2</title>
<text text-anchor="middle" x="312" y="-734.3" font-family="Times,serif" font-size="14.00">1 tsp salt</text>
</g>
<!-- C3 -->
<g id="node20" class="node">
<title>C3</title>
<text text-anchor="middle" x="450" y="-662.3" font-family="Times,serif" font-size="14.00">Combine</text>
</g>
<!-- S2&#45;&gt;C3 -->
<g id="edge16" class="edge">
<title>S2&#45;&gt;C3</title>
<path fill="none" stroke="black" d="M345.76,-719.88C364.22,-710.51 387.28,-698.81 407.02,-688.8"/>
<polygon fill="black" stroke="black" points="408.78,-691.83 416.11,-684.19 405.61,-685.59 408.78,-691.83"/>
</g>
<!-- FS -->
<g id="node10" class="node">
<title>FS</title>
<text text-anchor="middle" x="461" y="-734.3" font-family="Times,serif" font-size="14.00">1/2 tsp 5&#45;spice powder</text>
</g>
<!-- FS&#45;&gt;C3 -->
<g id="edge17" class="edge">
<title>FS&#45;&gt;C3</title>
<path fill="none" stroke="black" d="M458.28,-719.7C457.07,-711.98 455.61,-702.71 454.26,-694.11"/>
<polygon fill="black" stroke="black" points="457.7,-693.44 452.69,-684.1 450.78,-694.53 457.7,-693.44"/>
</g>
<!-- CL -->
<g id="node11" class="node">
<title>CL</title>
<text text-anchor="middle" x="657" y="-734.3" font-family="Times,serif" font-size="14.00">2 tsp Cinnamon liquor</text>
</g>
<!-- CL&#45;&gt;C3 -->
<g id="edge18" class="edge">
<title>CL&#45;&gt;C3</title>
<path fill="none" stroke="black" d="M606.63,-719.97C574.2,-709 532.23,-694.81 499.89,-683.87"/>
<polygon fill="black" stroke="black" points="500.78,-680.48 490.19,-680.59 498.54,-687.11 500.78,-680.48"/>
</g>
<!-- VK -->
<g id="node12" class="node">
<title>VK</title>
<text text-anchor="middle" x="635" y="-878.3" font-family="Times,serif" font-size="14.00">750 ml vodka</text>
</g>
<!-- Rest -->
<g id="node19" class="node">
<title>Rest</title>
<text text-anchor="middle" x="657" y="-806.3" font-family="Times,serif" font-size="14.00">let steep at least 10 days</text>
</g>
<!-- VK&#45;&gt;Rest -->
<g id="edge14" class="edge">
<title>VK&#45;&gt;Rest</title>
<path fill="none" stroke="black" d="M640.44,-863.7C642.89,-855.9 645.84,-846.51 648.57,-837.83"/>
<polygon fill="black" stroke="black" points="651.96,-838.69 651.62,-828.1 645.29,-836.59 651.96,-838.69"/>
</g>
<!-- CS -->
<g id="node13" class="node">
<title>CS</title>
<text text-anchor="middle" x="383" y="-950.3" font-family="Times,serif" font-size="14.00">1 Saigon cinnamon stick</text>
</g>
<!-- Toast -->
<g id="node18" class="node">
<title>Toast</title>
<text text-anchor="middle" x="737" y="-878.3" font-family="Times,serif" font-size="14.00">Toast</text>
</g>
<!-- CS&#45;&gt;Toast -->
<g id="edge9" class="edge">
<title>CS&#45;&gt;Toast</title>
<path fill="none" stroke="black" d="M478.8,-937.36C559,-924.22 664.84,-906.76 699.29,-899.44"/>
<polygon fill="black" stroke="black" points="700.52,-902.74 709.4,-896.96 698.85,-895.94 700.52,-902.74"/>
</g>
<!-- SA -->
<g id="node14" class="node">
<title>SA</title>
<text text-anchor="middle" x="569" y="-950.3" font-family="Times,serif" font-size="14.00">7 large Star anise</text>
</g>
<!-- SA&#45;&gt;Toast -->
<g id="edge8" class="edge">
<title>SA&#45;&gt;Toast</title>
<path fill="none" stroke="black" d="M613.27,-935.98C636.82,-926.76 666.41,-914.9 699.69,-900.48"/>
<polygon fill="black" stroke="black" points="701.4,-903.55 709.17,-896.34 698.6,-897.13 701.4,-903.55"/>
</g>
<!-- FEN -->
<g id="node15" class="node">
<title>FEN</title>
<text text-anchor="middle" x="737" y="-950.3" font-family="Times,serif" font-size="14.00">1/2 tsp Fennel seed</text>
</g>
<!-- FEN&#45;&gt;Toast -->
<g id="edge10" class="edge">
<title>FEN&#45;&gt;Toast</title>
<path fill="none" stroke="black" d="M737,-935.7C737,-927.98 737,-918.71 737,-910.11"/>
<polygon fill="black" stroke="black" points="740.5,-910.1 737,-900.1 733.5,-910.1 740.5,-910.1"/>
</g>
<!-- CLV -->
<g id="node16" class="node">
<title>CLV</title>
<text text-anchor="middle" x="891" y="-950.3" font-family="Times,serif" font-size="14.00">1/2 tsp cloves</text>
</g>
<!-- CLV&#45;&gt;Toast -->
<g id="edge11" class="edge">
<title>CLV&#45;&gt;Toast</title>
<path fill="none" stroke="black" d="M853.33,-935.88C829.12,-924.87 797.81,-910.64 773.78,-899.72"/>
<polygon fill="black" stroke="black" points="775.18,-896.51 764.62,-895.56 772.28,-902.88 775.18,-896.51"/>
</g>
<!-- PL -->
<g id="node17" class="node">
<title>PL</title>
<text text-anchor="middle" x="1045" y="-950.3" font-family="Times,serif" font-size="14.00">1 small orange peel</text>
</g>
<!-- PL&#45;&gt;Toast -->
<g id="edge12" class="edge">
<title>PL&#45;&gt;Toast</title>
<path fill="none" stroke="black" d="M970.05,-935.97C908.17,-921.9 822.93,-902.53 774.55,-891.53"/>
<polygon fill="black" stroke="black" points="775.04,-888.06 764.52,-889.25 773.49,-894.88 775.04,-888.06"/>
</g>
<!-- Toast&#45;&gt;Rest -->
<g id="edge13" class="edge">
<title>Toast&#45;&gt;Rest</title>
<path fill="none" stroke="black" d="M717.22,-863.7C707.25,-854.97 694.99,-844.24 684.14,-834.75"/>
<polygon fill="black" stroke="black" points="686.38,-832.06 676.55,-828.1 681.77,-837.32 686.38,-832.06"/>
</g>
<!-- Rest&#45;&gt;CL -->
<g id="edge15" class="edge">
<title>Rest&#45;&gt;CL</title>
<path fill="none" stroke="black" d="M657,-791.7C657,-783.98 657,-774.71 657,-766.11"/>
<polygon fill="black" stroke="black" points="660.5,-766.1 657,-756.1 653.5,-766.1 660.5,-766.1"/>
</g>
<!-- C3&#45;&gt;C4 -->
<g id="edge19" class="edge">
<title>C3&#45;&gt;C4</title>
<path fill="none" stroke="black" d="M440.11,-647.7C435.51,-639.64 429.94,-629.89 424.85,-620.98"/>
<polygon fill="black" stroke="black" points="427.77,-619.05 419.77,-612.1 421.7,-622.52 427.77,-619.05"/>
</g>
<!-- Dish -->
<g id="node27" class="node">
<title>Dish</title>
<text text-anchor="middle" x="495" y="-518.3" font-family="Times,serif" font-size="14.00">Place in baking dish with rack, level with radish</text>
</g>
<!-- C4&#45;&gt;Dish -->
<g id="edge24" class="edge">
<title>C4&#45;&gt;Dish</title>
<path fill="none" stroke="black" d="M431.01,-575.7C441.72,-566.88 454.89,-556.03 466.5,-546.47"/>
<polygon fill="black" stroke="black" points="468.74,-549.16 474.23,-540.1 464.29,-543.76 468.74,-549.16"/>
</g>
<!-- Oven -->
<g id="node22" class="node">
<title>Oven</title>
<text text-anchor="middle" x="873" y="-518.3" font-family="Times,serif" font-size="14.00">Oven</text>
</g>
<!-- Preheat1 -->
<g id="node23" class="node">
<title>Preheat1</title>
<text text-anchor="middle" x="873" y="-446.3" font-family="Times,serif" font-size="14.00">Preheat to 350 F</text>
</g>
<!-- Oven&#45;&gt;Preheat1 -->
<g id="edge21" class="edge">
<title>Oven&#45;&gt;Preheat1</title>
<path fill="none" stroke="black" d="M873,-503.7C873,-495.98 873,-486.71 873,-478.11"/>
<polygon fill="black" stroke="black" points="876.5,-478.1 873,-468.1 869.5,-478.1 876.5,-478.1"/>
</g>
<!-- Bake -->
<g id="node29" class="node">
<title>Bake</title>
<text text-anchor="middle" x="790" y="-374.3" font-family="Times,serif" font-size="14.00">Bake at 350 for 30 minutes</text>
</g>
<!-- Preheat1&#45;&gt;Bake -->
<g id="edge27" class="edge">
<title>Preheat1&#45;&gt;Bake</title>
<path fill="none" stroke="black" d="M852.48,-431.7C842.13,-422.97 829.41,-412.24 818.16,-402.75"/>
<polygon fill="black" stroke="black" points="820.18,-399.88 810.28,-396.1 815.67,-405.23 820.18,-399.88"/>
</g>
<!-- S3 -->
<g id="node24" class="node">
<title>S3</title>
<text text-anchor="middle" x="743" y="-518.3" font-family="Times,serif" font-size="14.00">2/3 cup salt</text>
</g>
<!-- Salt -->
<g id="node28" class="node">
<title>Salt</title>
<text text-anchor="middle" x="707" y="-446.3" font-family="Times,serif" font-size="14.00">Cover skin with salt</text>
</g>
<!-- S3&#45;&gt;Salt -->
<g id="edge26" class="edge">
<title>S3&#45;&gt;Salt</title>
<path fill="none" stroke="black" d="M734.1,-503.7C730,-495.73 725.05,-486.1 720.51,-477.26"/>
<polygon fill="black" stroke="black" points="723.48,-475.4 715.8,-468.1 717.26,-478.6 723.48,-475.4"/>
</g>
<!-- Rad -->
<g id="node25" class="node">
<title>Rad</title>
<text text-anchor="middle" x="581" y="-662.3" font-family="Times,serif" font-size="14.00">Radish</text>
</g>
<!-- Chop -->
<g id="node26" class="node">
<title>Chop</title>
<text text-anchor="middle" x="581" y="-590.3" font-family="Times,serif" font-size="14.00">Slice into 1/4&quot; to 1/2&quot; medallions</text>
</g>
<!-- Rad&#45;&gt;Chop -->
<g id="edge22" class="edge">
<title>Rad&#45;&gt;Chop</title>
<path fill="none" stroke="black" d="M581,-647.7C581,-639.98 581,-630.71 581,-622.11"/>
<polygon fill="black" stroke="black" points="584.5,-622.1 581,-612.1 577.5,-622.1 584.5,-622.1"/>
</g>
<!-- Chop&#45;&gt;Dish -->
<g id="edge23" class="edge">
<title>Chop&#45;&gt;Dish</title>
<path fill="none" stroke="black" d="M559.74,-575.7C548.91,-566.88 535.58,-556.03 523.84,-546.47"/>
<polygon fill="black" stroke="black" points="525.98,-543.7 516.01,-540.1 521.56,-549.13 525.98,-543.7"/>
</g>
<!-- Dish&#45;&gt;Salt -->
<g id="edge25" class="edge">
<title>Dish&#45;&gt;Salt</title>
<path fill="none" stroke="black" d="M546.59,-503.97C576.47,-494.1 614.26,-481.62 645.66,-471.25"/>
<polygon fill="black" stroke="black" points="646.78,-474.57 655.18,-468.11 644.59,-467.92 646.78,-474.57"/>
</g>
<!-- Salt&#45;&gt;Bake -->
<g id="edge28" class="edge">
<title>Salt&#45;&gt;Bake</title>
<path fill="none" stroke="black" d="M727.52,-431.7C737.87,-422.97 750.59,-412.24 761.84,-402.75"/>
<polygon fill="black" stroke="black" points="764.33,-405.23 769.72,-396.1 759.82,-399.88 764.33,-405.23"/>
</g>
<!-- Peel -->
<g id="node30" class="node">
<title>Peel</title>
<text text-anchor="middle" x="790" y="-302.3" font-family="Times,serif" font-size="14.00">Peel off skin</text>
</g>
<!-- Bake&#45;&gt;Peel -->
<g id="edge29" class="edge">
<title>Bake&#45;&gt;Peel</title>
<path fill="none" stroke="black" d="M790,-359.7C790,-351.98 790,-342.71 790,-334.11"/>
<polygon fill="black" stroke="black" points="793.5,-334.1 790,-324.1 786.5,-334.1 793.5,-334.1"/>
</g>
<!-- Pierce -->
<g id="node31" class="node">
<title>Pierce</title>
<text text-anchor="middle" x="790" y="-230.3" font-family="Times,serif" font-size="14.00">Pierce fat with skewer, re&#45;level if necessary</text>
</g>
<!-- Peel&#45;&gt;Pierce -->
<g id="edge30" class="edge">
<title>Peel&#45;&gt;Pierce</title>
<path fill="none" stroke="black" d="M790,-287.7C790,-279.98 790,-270.71 790,-262.11"/>
<polygon fill="black" stroke="black" points="793.5,-262.1 790,-252.1 786.5,-262.1 793.5,-262.1"/>
</g>
<!-- Water -->
<g id="node32" class="node">
<title>Water</title>
<text text-anchor="middle" x="790" y="-158.3" font-family="Times,serif" font-size="14.00">Fill water to top of radishes</text>
</g>
<!-- Pierce&#45;&gt;Water -->
<g id="edge31" class="edge">
<title>Pierce&#45;&gt;Water</title>
<path fill="none" stroke="black" d="M790,-215.7C790,-207.98 790,-198.71 790,-190.11"/>
<polygon fill="black" stroke="black" points="793.5,-190.1 790,-180.1 786.5,-190.1 793.5,-190.1"/>
</g>
<!-- Broil -->
<g id="node33" class="node">
<title>Broil</title>
<text text-anchor="middle" x="790" y="-86.3" font-family="Times,serif" font-size="14.00">Broil at 450 for 20&#45;30 minutes</text>
</g>
<!-- Water&#45;&gt;Broil -->
<g id="edge32" class="edge">
<title>Water&#45;&gt;Broil</title>
<path fill="none" stroke="black" d="M790,-143.7C790,-135.98 790,-126.71 790,-118.11"/>
<polygon fill="black" stroke="black" points="793.5,-118.1 790,-108.1 786.5,-118.1 793.5,-118.1"/>
</g>
<!-- Cut -->
<g id="node34" class="node">
<title>Cut</title>
<text text-anchor="middle" x="790" y="-14.3" font-family="Times,serif" font-size="14.00">Finish cuts through fat, and cut into 1/2&quot; medallions</text>
</g>
<!-- Broil&#45;&gt;Cut -->
<g id="edge33" class="edge">
<title>Broil&#45;&gt;Cut</title>
<path fill="none" stroke="black" d="M790,-71.7C790,-63.98 790,-54.71 790,-46.11"/>
<polygon fill="black" stroke="black" points="793.5,-46.1 790,-36.1 786.5,-46.1 793.5,-46.1"/>
</g>
</g>
</svg>
