<?xml version="1.0" encoding="UTF-8" standalone="no"?>
<!DOCTYPE svg PUBLIC "-//W3C//DTD SVG 1.1//EN"
 "http://www.w3.org/Graphics/SVG/1.1/DTD/svg11.dtd">
<!-- Generated by graphviz version 2.40.1 (20161225.0304)
 -->
<!-- Title: g Pages: 1 -->
<svg width="958pt" height="1052pt"
 viewBox="0.00 0.00 958.00 1052.00" xmlns="http://www.w3.org/2000/svg" xmlns:xlink="http://www.w3.org/1999/xlink">
<g id="graph0" class="graph" transform="scale(1 1) rotate(0) translate(4 1048)">
<title>g</title>
<polygon fill="#ffffff" stroke="transparent" points="-4,4 -4,-1048 954,-1048 954,4 -4,4"/>
<!-- PB -->
<g id="node1" class="node">
<title>PB</title>
<text text-anchor="middle" x="842" y="-950.3" font-family="Times,serif" font-size="14.00" fill="#000000">600&#45;700g pork belly</text>
</g>
<!-- C2 -->
<g id="node5" class="node">
<title>C2</title>
<text text-anchor="middle" x="726" y="-878.3" font-family="Times,serif" font-size="14.00" fill="#000000">Rub</text>
</g>
<!-- PB&#45;&gt;C2 -->
<g id="edge3" class="edge">
<title>PB&#45;&gt;C2</title>
<path fill="none" stroke="#000000" d="M812.7283,-935.8314C797.3249,-926.2706 778.3049,-914.4651 762.0053,-904.3481"/>
<polygon fill="#000000" stroke="#000000" points="763.6123,-901.2262 753.2701,-898.9263 759.9208,-907.1737 763.6123,-901.2262"/>
</g>
<!-- V -->
<g id="node2" class="node">
<title>V</title>
<text text-anchor="middle" x="679" y="-1022.3" font-family="Times,serif" font-size="14.00" fill="#000000">2 tbsp vodka</text>
</g>
<!-- C1 -->
<g id="node4" class="node">
<title>C1</title>
<text text-anchor="middle" x="726" y="-950.3" font-family="Times,serif" font-size="14.00" fill="#000000">Combine</text>
</g>
<!-- V&#45;&gt;C1 -->
<g id="edge1" class="edge">
<title>V&#45;&gt;C1</title>
<path fill="none" stroke="#000000" d="M690.8601,-1007.8314C696.1629,-999.7079 702.5237,-989.9637 708.3673,-981.0118"/>
<polygon fill="#000000" stroke="#000000" points="711.4448,-982.7003 713.9802,-972.4133 705.5831,-978.8739 711.4448,-982.7003"/>
</g>
<!-- S1 -->
<g id="node3" class="node">
<title>S1</title>
<text text-anchor="middle" x="773" y="-1022.3" font-family="Times,serif" font-size="14.00" fill="#000000">1 tsp salt</text>
</g>
<!-- S1&#45;&gt;C1 -->
<g id="edge2" class="edge">
<title>S1&#45;&gt;C1</title>
<path fill="none" stroke="#000000" d="M761.1399,-1007.8314C755.8371,-999.7079 749.4763,-989.9637 743.6327,-981.0118"/>
<polygon fill="#000000" stroke="#000000" points="746.4169,-978.8739 738.0198,-972.4133 740.5552,-982.7003 746.4169,-978.8739"/>
</g>
<!-- C1&#45;&gt;C2 -->
<g id="edge4" class="edge">
<title>C1&#45;&gt;C2</title>
<path fill="none" stroke="#000000" d="M726,-935.8314C726,-928.131 726,-918.9743 726,-910.4166"/>
<polygon fill="#000000" stroke="#000000" points="729.5001,-910.4132 726,-900.4133 722.5001,-910.4133 729.5001,-910.4132"/>
</g>
<!-- W -->
<g id="node6" class="node">
<title>W</title>
<text text-anchor="middle" x="672" y="-806.3" font-family="Times,serif" font-size="14.00" fill="#000000">Wash and pat dry</text>
</g>
<!-- C2&#45;&gt;W -->
<g id="edge5" class="edge">
<title>C2&#45;&gt;W</title>
<path fill="none" stroke="#000000" d="M712.3735,-863.8314C706.154,-855.5386 698.6678,-845.557 691.84,-836.4533"/>
<polygon fill="#000000" stroke="#000000" points="694.61,-834.3133 685.81,-828.4133 689.01,-838.5133 694.61,-834.3133"/>
</g>
<!-- SQ -->
<g id="node7" class="node">
<title>SQ</title>
<text text-anchor="middle" x="639" y="-734.3" font-family="Times,serif" font-size="14.00" fill="#000000">Square up</text>
</g>
<!-- W&#45;&gt;SQ -->
<g id="edge6" class="edge">
<title>W&#45;&gt;SQ</title>
<path fill="none" stroke="#000000" d="M663.6727,-791.8314C660.027,-783.8771 655.6691,-774.369 651.6373,-765.5723"/>
<polygon fill="#000000" stroke="#000000" points="654.7877,-764.0456 647.4394,-756.4133 648.4243,-766.9622 654.7877,-764.0456"/>
</g>
<!-- SC -->
<g id="node8" class="node">
<title>SC</title>
<text text-anchor="middle" x="588" y="-662.3" font-family="Times,serif" font-size="14.00" fill="#000000">Score meat side up to fat at 2&quot; intervals</text>
</g>
<!-- SQ&#45;&gt;SC -->
<g id="edge7" class="edge">
<title>SQ&#45;&gt;SC</title>
<path fill="none" stroke="#000000" d="M626.1305,-719.8314C620.3165,-711.6232 613.3304,-701.7606 606.9354,-692.7323"/>
<polygon fill="#000000" stroke="#000000" points="609.679,-690.5505 601.0427,-684.4133 603.9669,-694.5966 609.679,-690.5505"/>
</g>
<!-- C4 -->
<g id="node21" class="node">
<title>C4</title>
<text text-anchor="middle" x="504" y="-590.3" font-family="Times,serif" font-size="14.00" fill="#000000">Coat</text>
</g>
<!-- SC&#45;&gt;C4 -->
<g id="edge20" class="edge">
<title>SC&#45;&gt;C4</title>
<path fill="none" stroke="#000000" d="M566.8033,-647.8314C556.5566,-639.0485 544.0997,-628.3712 532.9903,-618.8489"/>
<polygon fill="#000000" stroke="#000000" points="535.0603,-616.0134 525.19,-612.1628 530.5048,-621.3282 535.0603,-616.0134"/>
</g>
<!-- S2 -->
<g id="node9" class="node">
<title>S2</title>
<text text-anchor="middle" x="170" y="-734.3" font-family="Times,serif" font-size="14.00" fill="#000000">1 tsp salt</text>
</g>
<!-- C3 -->
<g id="node20" class="node">
<title>C3</title>
<text text-anchor="middle" x="370" y="-662.3" font-family="Times,serif" font-size="14.00" fill="#000000">Combine</text>
</g>
<!-- S2&#45;&gt;C3 -->
<g id="edge16" class="edge">
<title>S2&#45;&gt;C3</title>
<path fill="none" stroke="#000000" d="M202.9186,-723.6135C205.9766,-722.3614 209.0382,-721.1389 212,-720 250.3309,-705.2602 294.624,-690.2971 326.5419,-679.8718"/>
<polygon fill="#000000" stroke="#000000" points="328.0184,-683.0722 336.4468,-676.6524 325.8546,-676.415 328.0184,-683.0722"/>
</g>
<!-- FS -->
<g id="node10" class="node">
<title>FS</title>
<text text-anchor="middle" x="291" y="-734.3" font-family="Times,serif" font-size="14.00" fill="#000000">1/2 tsp 5&#45;spice powder</text>
</g>
<!-- FS&#45;&gt;C3 -->
<g id="edge17" class="edge">
<title>FS&#45;&gt;C3</title>
<path fill="none" stroke="#000000" d="M310.935,-719.8314C320.4783,-711.1337 332.0599,-700.5783 342.4306,-691.1265"/>
<polygon fill="#000000" stroke="#000000" points="345.038,-693.4857 350.0713,-684.1628 340.3228,-688.3121 345.038,-693.4857"/>
</g>
<!-- CL -->
<g id="node11" class="node">
<title>CL</title>
<text text-anchor="middle" x="449" y="-734.3" font-family="Times,serif" font-size="14.00" fill="#000000">2 tsp Cinnamon liquor</text>
</g>
<!-- CL&#45;&gt;C3 -->
<g id="edge18" class="edge">
<title>CL&#45;&gt;C3</title>
<path fill="none" stroke="#000000" d="M429.065,-719.8314C419.5217,-711.1337 407.9401,-700.5783 397.5694,-691.1265"/>
<polygon fill="#000000" stroke="#000000" points="399.6772,-688.3121 389.9287,-684.1628 394.962,-693.4857 399.6772,-688.3121"/>
</g>
<!-- VK -->
<g id="node12" class="node">
<title>VK</title>
<text text-anchor="middle" x="324" y="-878.3" font-family="Times,serif" font-size="14.00" fill="#000000">750 ml vodka</text>
</g>
<!-- Rest -->
<g id="node19" class="node">
<title>Rest</title>
<text text-anchor="middle" x="415" y="-806.3" font-family="Times,serif" font-size="14.00" fill="#000000">let steep at least 10 days</text>
</g>
<!-- VK&#45;&gt;Rest -->
<g id="edge14" class="edge">
<title>VK&#45;&gt;Rest</title>
<path fill="none" stroke="#000000" d="M346.9631,-863.8314C358.1715,-854.9632 371.8209,-844.1637 383.9439,-834.5718"/>
<polygon fill="#000000" stroke="#000000" points="386.3737,-837.1125 392.0442,-828.1628 382.0303,-831.6229 386.3737,-837.1125"/>
</g>
<!-- CS -->
<g id="node13" class="node">
<title>CS</title>
<text text-anchor="middle" x="76" y="-950.3" font-family="Times,serif" font-size="14.00" fill="#000000">1 Saigon cinnamon stick</text>
</g>
<!-- Toast -->
<g id="node18" class="node">
<title>Toast</title>
<text text-anchor="middle" x="415" y="-878.3" font-family="Times,serif" font-size="14.00" fill="#000000">Toast</text>
</g>
<!-- CS&#45;&gt;Toast -->
<g id="edge9" class="edge">
<title>CS&#45;&gt;Toast</title>
<path fill="none" stroke="#000000" d="M152.4231,-937.6467C155.3169,-937.0814 158.1835,-936.5305 161,-936 254.3942,-918.409 283.7086,-929.5264 378.1825,-899.7492"/>
<polygon fill="#000000" stroke="#000000" points="379.3977,-903.0349 387.8418,-896.6359 377.2503,-896.3724 379.3977,-903.0349"/>
</g>
<!-- SA -->
<g id="node14" class="node">
<title>SA</title>
<text text-anchor="middle" x="226" y="-950.3" font-family="Times,serif" font-size="14.00" fill="#000000">7 large Star anise</text>
</g>
<!-- SA&#45;&gt;Toast -->
<g id="edge8" class="edge">
<title>SA&#45;&gt;Toast</title>
<path fill="none" stroke="#000000" d="M281.5145,-936.2617C308.5481,-927.1965 341.5934,-915.4876 378.2513,-900.106"/>
<polygon fill="#000000" stroke="#000000" points="379.8112,-903.2462 387.6475,-896.1157 377.075,-896.8031 379.8112,-903.2462"/>
</g>
<!-- FEN -->
<g id="node15" class="node">
<title>FEN</title>
<text text-anchor="middle" x="361" y="-950.3" font-family="Times,serif" font-size="14.00" fill="#000000">1/2 tsp Fennel seed</text>
</g>
<!-- FEN&#45;&gt;Toast -->
<g id="edge10" class="edge">
<title>FEN&#45;&gt;Toast</title>
<path fill="none" stroke="#000000" d="M374.6265,-935.8314C380.846,-927.5386 388.3322,-917.557 395.16,-908.4533"/>
<polygon fill="#000000" stroke="#000000" points="397.99,-910.5133 401.19,-900.4133 392.39,-906.3133 397.99,-910.5133"/>
</g>
<!-- CLV -->
<g id="node16" class="node">
<title>CLV</title>
<text text-anchor="middle" x="486" y="-950.3" font-family="Times,serif" font-size="14.00" fill="#000000">1/2 tsp cloves</text>
</g>
<!-- CLV&#45;&gt;Toast -->
<g id="edge11" class="edge">
<title>CLV&#45;&gt;Toast</title>
<path fill="none" stroke="#000000" d="M468.0837,-935.8314C459.6558,-927.2848 449.459,-916.9443 440.264,-907.6198"/>
<polygon fill="#000000" stroke="#000000" points="442.6711,-905.0761 433.1575,-900.4133 437.6869,-909.9912 442.6711,-905.0761"/>
</g>
<!-- PL -->
<g id="node17" class="node">
<title>PL</title>
<text text-anchor="middle" x="612" y="-950.3" font-family="Times,serif" font-size="14.00" fill="#000000">1 small orange peel</text>
</g>
<!-- PL&#45;&gt;Toast -->
<g id="edge12" class="edge">
<title>PL&#45;&gt;Toast</title>
<path fill="none" stroke="#000000" d="M562.5429,-935.9243C528.0899,-923.3324 482.8896,-906.8124 451.6418,-895.3919"/>
<polygon fill="#000000" stroke="#000000" points="452.6118,-892.0201 442.018,-891.8746 450.2088,-898.5947 452.6118,-892.0201"/>
</g>
<!-- Toast&#45;&gt;Rest -->
<g id="edge13" class="edge">
<title>Toast&#45;&gt;Rest</title>
<path fill="none" stroke="#000000" d="M415,-863.8314C415,-856.131 415,-846.9743 415,-838.4166"/>
<polygon fill="#000000" stroke="#000000" points="418.5001,-838.4132 415,-828.4133 411.5001,-838.4133 418.5001,-838.4132"/>
</g>
<!-- Rest&#45;&gt;CL -->
<g id="edge15" class="edge">
<title>Rest&#45;&gt;CL</title>
<path fill="none" stroke="#000000" d="M423.5796,-791.8314C427.3358,-783.8771 431.8257,-774.369 435.9798,-765.5723"/>
<polygon fill="#000000" stroke="#000000" points="439.1996,-766.9503 440.3048,-756.4133 432.8699,-763.9612 439.1996,-766.9503"/>
</g>
<!-- C3&#45;&gt;C4 -->
<g id="edge19" class="edge">
<title>C3&#45;&gt;C4</title>
<path fill="none" stroke="#000000" d="M403.8139,-647.8314C423.358,-637.33 447.9424,-624.1205 467.8665,-613.415"/>
<polygon fill="#000000" stroke="#000000" points="469.7913,-616.3541 476.9436,-608.5378 466.478,-610.1879 469.7913,-616.3541"/>
</g>
<!-- Dish -->
<g id="node27" class="node">
<title>Dish</title>
<text text-anchor="middle" x="504" y="-518.3" font-family="Times,serif" font-size="14.00" fill="#000000">Place in baking dish with rack, level with radish</text>
</g>
<!-- C4&#45;&gt;Dish -->
<g id="edge24" class="edge">
<title>C4&#45;&gt;Dish</title>
<path fill="none" stroke="#000000" d="M504,-575.8314C504,-568.131 504,-558.9743 504,-550.4166"/>
<polygon fill="#000000" stroke="#000000" points="507.5001,-550.4132 504,-540.4133 500.5001,-550.4133 507.5001,-550.4132"/>
</g>
<!-- Oven -->
<g id="node22" class="node">
<title>Oven</title>
<text text-anchor="middle" x="787" y="-518.3" font-family="Times,serif" font-size="14.00" fill="#000000">Oven</text>
</g>
<!-- Preheat1 -->
<g id="node23" class="node">
<title>Preheat1</title>
<text text-anchor="middle" x="773" y="-446.3" font-family="Times,serif" font-size="14.00" fill="#000000">Preheat to 350 F</text>
</g>
<!-- Oven&#45;&gt;Preheat1 -->
<g id="edge21" class="edge">
<title>Oven&#45;&gt;Preheat1</title>
<path fill="none" stroke="#000000" d="M783.4672,-503.8314C781.9699,-496.131 780.1895,-486.9743 778.5255,-478.4166"/>
<polygon fill="#000000" stroke="#000000" points="781.9248,-477.5614 776.5804,-468.4133 775.0535,-478.8975 781.9248,-477.5614"/>
</g>
<!-- Bake -->
<g id="node29" class="node">
<title>Bake</title>
<text text-anchor="middle" x="744" y="-374.3" font-family="Times,serif" font-size="14.00" fill="#000000">Bake at 350 for 30 minutes</text>
</g>
<!-- Preheat1&#45;&gt;Bake -->
<g id="edge27" class="edge">
<title>Preheat1&#45;&gt;Bake</title>
<path fill="none" stroke="#000000" d="M765.6821,-431.8314C762.5124,-423.9617 758.73,-414.5712 755.2187,-405.8533"/>
<polygon fill="#000000" stroke="#000000" points="758.3992,-404.3815 751.4165,-396.4133 751.9061,-406.9968 758.3992,-404.3815"/>
</g>
<!-- S3 -->
<g id="node24" class="node">
<title>S3</title>
<text text-anchor="middle" x="702" y="-518.3" font-family="Times,serif" font-size="14.00" fill="#000000">2/3 cup salt</text>
</g>
<!-- Salt -->
<g id="node28" class="node">
<title>Salt</title>
<text text-anchor="middle" x="638" y="-446.3" font-family="Times,serif" font-size="14.00" fill="#000000">Cover skin with salt</text>
</g>
<!-- S3&#45;&gt;Salt -->
<g id="edge26" class="edge">
<title>S3&#45;&gt;Salt</title>
<path fill="none" stroke="#000000" d="M685.8501,-503.8314C678.3283,-495.3694 669.2435,-485.1489 661.0196,-475.8971"/>
<polygon fill="#000000" stroke="#000000" points="663.627,-473.5621 654.3673,-468.4133 658.3951,-478.2127 663.627,-473.5621"/>
</g>
<!-- Rad -->
<g id="node25" class="node">
<title>Rad</title>
<text text-anchor="middle" x="802" y="-662.3" font-family="Times,serif" font-size="14.00" fill="#000000">Radish</text>
</g>
<!-- Chop -->
<g id="node26" class="node">
<title>Chop</title>
<text text-anchor="middle" x="802" y="-590.3" font-family="Times,serif" font-size="14.00" fill="#000000">Slice into 1/4&quot; to 1/2&quot; medallions</text>
</g>
<!-- Rad&#45;&gt;Chop -->
<g id="edge22" class="edge">
<title>Rad&#45;&gt;Chop</title>
<path fill="none" stroke="#000000" d="M802,-647.8314C802,-640.131 802,-630.9743 802,-622.4166"/>
<polygon fill="#000000" stroke="#000000" points="805.5001,-622.4132 802,-612.4133 798.5001,-622.4133 805.5001,-622.4132"/>
</g>
<!-- Chop&#45;&gt;Dish -->
<g id="edge23" class="edge">
<title>Chop&#45;&gt;Dish</title>
<path fill="none" stroke="#000000" d="M727.1867,-575.9243C684.9512,-565.7198 632.0386,-552.9355 588.3349,-542.3762"/>
<polygon fill="#000000" stroke="#000000" points="589.1279,-538.9672 578.5856,-540.0207 587.4839,-545.7714 589.1279,-538.9672"/>
</g>
<!-- Pierce -->
<g id="node31" class="node">
<title>Pierce</title>
<text text-anchor="middle" x="799" y="-230.3" font-family="Times,serif" font-size="14.00" fill="#000000">Pierce fat with skewer, re&#45;level if necessary</text>
</g>
<!-- Chop&#45;&gt;Pierce -->
<g id="edge31" class="edge">
<title>Chop&#45;&gt;Pierce</title>
<path fill="none" stroke="#000000" d="M813.5002,-575.6962C829.0879,-549.088 855,-497.6848 855,-450 855,-450 855,-450 855,-378 855,-334.8617 832.9001,-289.0945 816.4668,-261.0255"/>
<polygon fill="#000000" stroke="#000000" points="819.3137,-258.9688 811.1512,-252.2143 813.32,-262.5847 819.3137,-258.9688"/>
</g>
<!-- Dish&#45;&gt;Salt -->
<g id="edge25" class="edge">
<title>Dish&#45;&gt;Salt</title>
<path fill="none" stroke="#000000" d="M537.8139,-503.8314C555.2707,-494.4516 576.7487,-482.9112 595.3352,-472.9244"/>
<polygon fill="#000000" stroke="#000000" points="597.0446,-475.9792 604.197,-468.1628 593.7314,-469.8129 597.0446,-475.9792"/>
</g>
<!-- Salt&#45;&gt;Bake -->
<g id="edge28" class="edge">
<title>Salt&#45;&gt;Bake</title>
<path fill="none" stroke="#000000" d="M664.7483,-431.8314C678.0553,-422.7927 694.316,-411.7476 708.6375,-402.0198"/>
<polygon fill="#000000" stroke="#000000" points="710.9547,-404.677 717.2603,-396.1628 707.0215,-398.8864 710.9547,-404.677"/>
</g>
<!-- Peel -->
<g id="node30" class="node">
<title>Peel</title>
<text text-anchor="middle" x="764" y="-302.3" font-family="Times,serif" font-size="14.00" fill="#000000">Peel off skin</text>
</g>
<!-- Bake&#45;&gt;Peel -->
<g id="edge29" class="edge">
<title>Bake&#45;&gt;Peel</title>
<path fill="none" stroke="#000000" d="M749.0468,-359.8314C751.2094,-352.0463 753.7853,-342.7729 756.1848,-334.1347"/>
<polygon fill="#000000" stroke="#000000" points="759.581,-334.9852 758.8852,-324.4133 752.8364,-333.1117 759.581,-334.9852"/>
</g>
<!-- Peel&#45;&gt;Pierce -->
<g id="edge30" class="edge">
<title>Peel&#45;&gt;Pierce</title>
<path fill="none" stroke="#000000" d="M772.832,-287.8314C776.6986,-279.8771 781.3206,-270.369 785.5968,-261.5723"/>
<polygon fill="#000000" stroke="#000000" points="788.8249,-262.9371 790.0491,-252.4133 782.5293,-259.8768 788.8249,-262.9371"/>
</g>
<!-- Water -->
<g id="node32" class="node">
<title>Water</title>
<text text-anchor="middle" x="799" y="-158.3" font-family="Times,serif" font-size="14.00" fill="#000000">Fill water to top of radishes</text>
</g>
<!-- Pierce&#45;&gt;Water -->
<g id="edge32" class="edge">
<title>Pierce&#45;&gt;Water</title>
<path fill="none" stroke="#000000" d="M799,-215.8314C799,-208.131 799,-198.9743 799,-190.4166"/>
<polygon fill="#000000" stroke="#000000" points="802.5001,-190.4132 799,-180.4133 795.5001,-190.4133 802.5001,-190.4132"/>
</g>
<!-- Broil -->
<g id="node33" class="node">
<title>Broil</title>
<text text-anchor="middle" x="799" y="-86.3" font-family="Times,serif" font-size="14.00" fill="#000000">Broil at 450 for 20&#45;30 minutes</text>
</g>
<!-- Water&#45;&gt;Broil -->
<g id="edge33" class="edge">
<title>Water&#45;&gt;Broil</title>
<path fill="none" stroke="#000000" d="M799,-143.8314C799,-136.131 799,-126.9743 799,-118.4166"/>
<polygon fill="#000000" stroke="#000000" points="802.5001,-118.4132 799,-108.4133 795.5001,-118.4133 802.5001,-118.4132"/>
</g>
<!-- Cut -->
<g id="node34" class="node">
<title>Cut</title>
<text text-anchor="middle" x="799" y="-14.3" font-family="Times,serif" font-size="14.00" fill="#000000">Finish cuts through fat, and cut into 1/2&quot; medallions</text>
</g>
<!-- Broil&#45;&gt;Cut -->
<g id="edge34" class="edge">
<title>Broil&#45;&gt;Cut</title>
<path fill="none" stroke="#000000" d="M799,-71.8314C799,-64.131 799,-54.9743 799,-46.4166"/>
<polygon fill="#000000" stroke="#000000" points="802.5001,-46.4132 799,-36.4133 795.5001,-46.4133 802.5001,-46.4132"/>
</g>
</g>
</svg>
